<svg width="308" height="62" xmlns="http://www.w3.org/2000/svg">

 <g>
  <title>background</title>
  <rect fill="none" id="canvas_background" height="402" width="582" y="-1" x="-1"/>
 </g>
 <g>
  <title>Layer 1</title>
  <path id="svg_1" fill="white" d="m100.088,27.9323c6.799,0 11.504,-3.859 11.504,-12.4908l-11.9162,0l0,3.8251l6.6962,0c-0.034,0.2031 -0.068,0.4062 -0.137,0.5754c-0.618,2.4373 -3.056,3.8928 -6.147,3.8928c-4.121,0 -7.3147,-3.5881 -7.3147,-7.7517c0,-4.1636 3.1937,-7.61639 7.3147,-7.61639c2.06,0 3.949,0.88012 5.288,2.30179l3.469,-2.94495c-2.061,-2.26798 -5.186,-3.72355 -8.757,-3.72355c-6.7996,0 -12.088,5.34838 -12.088,11.9831c0,6.6008 5.2884,11.9492 12.088,11.9492z"/>
  <path id="svg_2" fill="white" d="m122.371,27.9323c4.567,0 8.619,-3.2496 8.619,-8.2257c0,-5.0098 -4.052,-8.2595 -8.619,-8.2595c-4.567,0 -8.62,3.2497 -8.62,8.2595c0,4.9761 4.053,8.2257 8.62,8.2257zm0,-4.1298c-2.232,0 -4.052,-1.6586 -4.052,-4.0959c0,-2.4711 1.82,-4.1297 4.052,-4.1297c2.232,0 4.052,1.6586 4.052,4.1297c0,2.4373 -1.82,4.0959 -4.052,4.0959z"/>
  <path id="svg_3" fill="white" d="m147.171,27.6276l5.597,0l-6.147,-8.598c3.984,-0.8124 5.735,-3.7912 5.735,-7.1086c0,-3.82509 -2.335,-7.61635 -7.761,-7.61635l-9.444,0l0,23.32295l4.774,0l0,-8.361l1.614,0l5.632,8.361zm-7.246,-19.15934l4.189,0c2.232,0 3.434,1.69254 3.434,3.55434c0,1.8617 -1.133,3.4527 -3.811,3.4527l-3.812,0l0,-7.00704z"/>
  <path id="svg_4" fill="white" d="m171.426,19.4697c0,-4.8406 -3.744,-8.0226 -8.311,-8.0226c-4.602,0 -8.516,3.182 -8.516,8.2934c0,4.8745 3.605,8.1918 8.516,8.1918c2.816,0 5.632,-1.0832 7.143,-3.0804l-2.644,-2.6065c-0.962,1.1171 -2.576,1.7602 -4.19,1.7602c-2.163,0 -3.674,-1.0155 -4.155,-2.8434l12.088,0c0.034,-0.7109 0.069,-1.2525 0.069,-1.6925zm-12.157,-1.1848c0.481,-2.1326 2.095,-2.9788 3.915,-2.9788c2.026,0 3.606,1.117 3.743,2.9788l-7.658,0z"/>
  <path id="svg_5" fill="white" d="m180.576,27.9323c3.297,0 6.731,-1.6248 6.731,-4.9422c0,-1.2863 -0.481,-3.6558 -4.327,-4.6713l-2.644,-0.6771c-0.893,-0.2369 -1.58,-0.6093 -1.58,-1.354c0,-0.8124 0.825,-1.3201 1.855,-1.3201c1.064,0 1.957,0.5754 1.957,1.6248l4.293,0c0.034,-3.7236 -3.4,-5.1453 -6.319,-5.1453c-3.709,0 -6.284,2.268 -6.284,4.7052c0,1.6587 0.549,3.9267 4.67,5.0099l2.129,0.5078c1.202,0.3046 1.752,0.6431 1.752,1.3201c0,0.914 -0.996,1.4556 -2.301,1.4556c-1.58,0 -2.37,-0.9817 -2.37,-1.8956l-4.224,0c0.035,3.4866 3.297,5.3822 6.662,5.3822z"/>
  <path id="svg_6" fill="white" d="m200.216,11.8533l-3.399,0l0,-5.78842l-4.499,0l0,5.78842l-2.919,0l0,3.4189l2.919,0l0,12.3554l4.499,0l0,-12.3554l3.399,0l0,-3.4189z"/>
  <path id="svg_7" fill="white" d="m214.899,11.8533l0,1.8956c-1.133,-1.5909 -3.297,-2.2679 -5.151,-2.2679c-4.121,0 -7.864,3.1481 -7.864,8.2256c0,5.0776 3.743,8.2257 7.864,8.2257c1.786,0 4.018,-0.7109 5.151,-2.268l0,1.9633l4.499,0l0,-15.7743l-4.499,0zm-4.293,11.9492c-2.266,0 -4.155,-1.794 -4.155,-4.0959c0,-2.3357 1.889,-4.062 4.155,-4.062c2.095,0 4.156,1.6248 4.156,4.062c0,2.4034 -1.958,4.0959 -4.156,4.0959z"/>
  <path id="svg_8" fill="white" d="m234.894,11.8533l0,8.0903c0,2.8434 -1.992,3.6897 -3.606,3.6897c-1.545,0 -3.056,-1.1171 -3.056,-3.5882l0,-8.1918l-4.499,0l0,8.6657c-0.034,4.7391 2.164,7.481 6.353,7.481c1.58,0 4.121,-0.8801 4.808,-2.945l0,2.5726l4.499,0l0,-15.7743l-4.499,0z"/>
  <path id="svg_9" fill="white" d="m253.096,11.4471c-1.992,0 -3.812,1.1171 -4.705,3.7574l0,-3.3512l-4.464,0l0,15.7743l4.498,0l0,-5.416c0,-4.5022 1.58,-6.6009 3.881,-6.6009c0.549,0 1.339,0.0677 2.301,0.5755l1.03,-4.2313c-0.721,-0.3724 -1.683,-0.5078 -2.541,-0.5078z"/>
  <path id="svg_10" fill="white" d="m269.73,11.8533l0,1.8956c-1.133,-1.5909 -3.297,-2.2679 -5.151,-2.2679c-4.121,0 -7.864,3.1481 -7.864,8.2256c0,5.0776 3.743,8.2257 7.864,8.2257c1.786,0 4.018,-0.7109 5.151,-2.268l0,1.9633l4.498,0l0,-15.7743l-4.498,0zm-4.293,11.9492c-2.266,0 -4.155,-1.794 -4.155,-4.0959c0,-2.3357 1.889,-4.062 4.155,-4.062c2.095,0 4.156,1.6248 4.156,4.062c0,2.4034 -1.958,4.0959 -4.156,4.0959z"/>
  <path id="svg_11" fill="white" d="m288.077,11.4471c-1.58,0 -4.121,0.914 -4.808,3.0466l0,-2.6404l-4.499,0l0,15.7743l4.499,0l0,-8.0902c0,-2.8773 1.992,-3.7236 3.606,-3.7236c1.545,0 3.056,1.1171 3.056,3.622l0,8.1918l4.499,0l0,-8.6657c0.034,-4.7391 -2.164,-7.5148 -6.353,-7.5148z"/>
  <path id="svg_12" fill="white" d="m308,11.8533l-3.4,0l0,-5.78842l-4.498,0l0,5.78842l-2.919,0l0,3.4189l2.919,0l0,12.3554l4.498,0l0,-12.3554l3.4,0l0,-3.4189z"/>
  <path id="svg_32" fill="#FFB84D" d="m32,16.3863c-3.9628,0 -7.7103,-0.6244 -10.5519,-1.7581c-3.2633,-1.3019 -5.0606,-3.2 -5.0605,-5.34478c0,-2.14467 1.7973,-4.04276 5.0606,-5.34464c2.0331,-0.81104 4.5312,-1.35971 7.2389,-1.6073c-0.4351,-0.56838 -0.395,-1.38624 0.1232,-1.90693c0.5632,-0.56607 1.4764,-0.56607 2.0397,0l2.1697,2.1809c0.5633,0.56607 0.5633,1.48395 0,2.05001l-2.1698,2.18076c-0.2816,0.2831 -0.6508,0.42458 -1.0199,0.42458c-0.3691,0 -0.7382,-0.14148 -1.0199,-0.42458c-0.4234,-0.42574 -0.5283,-1.05037 -0.3148,-1.57469c-2.2528,0.23774 -4.3091,0.70407 -5.9829,1.37189c-2.3917,0.95412 -3.2402,2.02392 -3.2402,2.65c0,0.62607 0.8485,1.69588 3.2402,2.64998c2.511,1.0018 5.8805,1.5535 9.4876,1.5535c3.6071,0 6.9766,-0.5517 9.4877,-1.5535c2.3916,-0.9541 3.2402,-2.02376 3.2402,-2.64998c0,-1.01617 -1.9711,-2.52069 -5.7382,-3.43031c-0.7745,-0.187 -1.2515,-0.96963 -1.0655,-1.74806c0.186,-0.77843 0.965,-1.25795 1.7393,-1.07081c5.0518,1.21968 7.949,3.49757 7.949,6.24932c0,2.14464 -1.7973,4.04274 -5.0605,5.34464c-2.8417,1.1337 -6.5892,1.7581 -10.552,1.7581zm22.0449,6.5453c8.2279,2.6316 9.9551,5.9617 9.9551,8.2919c0,0.038 -0.0006,0.0763 -0.0014,0.1147c-0.0309,8.1904 -3.3638,15.8827 -9.395,21.6709c-6.041,5.7979 -14.0686,8.9909 -22.6036,8.9909c-8.535,0 -16.5624,-3.193 -22.60364,-8.9909c-6.03111,-5.7882 -9.36405,-13.4805 -9.39492,-21.6709c-0.00086,-0.0384 -0.00144,-0.0767 -0.00144,-0.1147c0,-2.3302 1.72719,-5.6603 9.95526,-8.2921c5.90924,-1.8898 13.73824,-2.9306 22.04484,-2.9306c5.5783,0 10.9401,0.4701 15.6509,1.3507l3.5904,-5.4817c0.4381,-0.6687 1.3324,-0.854 1.9978,-0.4138c0.6653,0.4403 0.8497,1.3392 0.4116,2.0079l-2.969,4.533c1.1771,0.2835 2.3015,0.5952 3.3631,0.9347zm7.0704,8.2919c0,-1.8431 -3.0443,-3.9617 -7.9452,-5.5292c-1.2985,-0.4153 -2.6985,-0.7871 -4.1802,-1.1141l-5.9256,9.0472c4.4305,0.5414 8.4738,1.405 11.7805,2.5409c3.9094,-1.4856 6.2705,-3.322 6.2705,-4.9448zm-46.7941,6.4868c5.0865,1.1922 11.2202,1.8366 17.6788,1.8366c1.2755,0 2.5381,-0.0254 3.7825,-0.0749l2.2312,-3.4064c-1.9628,-0.128 -3.9766,-0.1946 -6.0141,-0.1946c-6.4178,0 -12.6031,0.6551 -17.6784,1.8393zm35.3577,0c-2.5535,-0.5958 -5.3884,-1.0572 -8.3923,-1.369l-1.9101,2.9164c3.7143,-0.2977 7.2027,-0.8209 10.3024,-1.5474zm-17.679,-14.8102c-8.0178,0 -15.5361,0.9924 -21.1702,2.7942c-4.90071,1.5673 -7.94504,3.6861 -7.94504,5.5292c0,1.623 2.36124,3.4593 6.27068,4.9448c5.92166,-2.0343 14.20426,-3.1966 22.84406,-3.1966c2.6633,0 5.2918,0.1113 7.8286,0.3236l6.0963,-9.3077c-4.2363,-0.7104 -8.9852,-1.0875 -13.9244,-1.0875zm-28.58936,13.6063c2.58566,12.8539 14.42126,22.5944 28.58946,22.5944c14.1682,0 26.0038,-9.7403 28.5895,-22.5944c-1.4976,1.0406 -3.6064,2.0694 -6.5446,3.009c-5.9091,1.8899 -13.7382,2.9307 -22.0449,2.9307c-8.3067,0 -16.1357,-1.0408 -22.04488,-2.9307c-2.93818,-0.9397 -5.04701,-1.9685 -6.54458,-3.009z" clip-rule="evenodd" fill-rule="evenodd"/>
 </g>
</svg>